<svg width="16" height="12" viewBox="0 0 16 12" fill="none" xmlns="http://www.w3.org/2000/svg">
<g id="Group 23">
<rect id="Rectangle 8" x="0.954102" y="0.345459" width="14.4247" height="10.6287" rx="2" fill="#309B19"/>
<g id="Vector">
<path d="M13.3333 0H2.66667C2.31647 0 1.96971 0.0689752 1.64618 0.202988C1.32264 0.337 1.02867 0.533425 0.781049 0.781048C0.280952 1.28115 0 1.95942 0 2.66666V9.06665C0 9.77389 0.280952 10.4522 0.781049 10.9523C1.02867 11.1999 1.32264 11.3963 1.64618 11.5303C1.96971 11.6643 2.31647 11.7333 2.66667 11.7333H13.3333C14.0406 11.7333 14.7189 11.4524 15.219 10.9523C15.719 10.4522 16 9.77389 16 9.06665V2.66666C16 1.95942 15.719 1.28115 15.219 0.781048C14.7189 0.280951 14.0406 0 13.3333 0ZM14.9333 9.06665C14.9333 9.491 14.7648 9.89796 14.4647 10.198C14.1646 10.4981 13.7577 10.6666 13.3333 10.6666H2.66667C2.24232 10.6666 1.83535 10.4981 1.5353 10.198C1.23524 9.89796 1.06667 9.491 1.06667 9.06665V2.66666C1.06667 2.24232 1.23524 1.83535 1.5353 1.53529C1.83535 1.23524 2.24232 1.06667 2.66667 1.06667H13.3333C13.7577 1.06667 14.1646 1.23524 14.4647 1.53529C14.7648 1.83535 14.9333 2.24232 14.9333 2.66666V9.06665Z" fill="#309B19"/>
<path d="M13.9795 3.60801C14.0145 3.47099 13.9936 3.32567 13.9215 3.20402C13.8501 3.09351 13.7403 3.01331 13.6133 2.97886C13.4863 2.9444 13.351 2.95811 13.2335 3.01736L8.96686 5.56136C8.71863 5.70984 8.43478 5.78825 8.14553 5.78825C7.85628 5.78825 7.57243 5.70984 7.3242 5.56136L3.05753 3.01736C2.99718 2.97346 2.92829 2.94273 2.85531 2.92713C2.78233 2.91153 2.70689 2.91143 2.63387 2.92681C2.56085 2.9422 2.49187 2.97274 2.43139 3.01646C2.37091 3.06018 2.32028 3.11611 2.28277 3.18062C2.24527 3.24514 2.22171 3.3168 2.21364 3.39099C2.20557 3.46518 2.21315 3.54023 2.23591 3.61131C2.25866 3.68238 2.29608 3.74788 2.34574 3.80359C2.3954 3.85929 2.45619 3.90396 2.5242 3.93469L6.75886 6.47336C7.17201 6.72433 7.64613 6.85706 8.12953 6.85706C8.61293 6.85706 9.08705 6.72433 9.5002 6.47336L13.7349 3.93469C13.8565 3.86253 13.9445 3.74503 13.9795 3.60801Z" fill="white"/>
</g>
</g>
</svg>
