<svg width="12" height="16" viewBox="0 0 12 16" fill="none" xmlns="http://www.w3.org/2000/svg">
<path id="Vector" d="M0.957501 9.25473L0.987501 9.2981C1.02417 9.35314 1.0625 9.4065 1.10083 9.46488L5.44417 15.7091C5.50665 15.7989 5.58991 15.8722 5.68683 15.9229C5.78376 15.9735 5.89149 16 6.00083 16C6.11018 16 6.21791 15.9735 6.31483 15.9229C6.41176 15.8722 6.49501 15.7989 6.5575 15.7091L10.8908 9.46988C10.9325 9.41151 10.9725 9.3548 11.0125 9.3031L11.0392 9.26307C11.6247 8.35646 11.9552 7.30864 11.9958 6.22993C12.0363 5.15121 11.7855 4.0815 11.2698 3.1334C10.754 2.18529 9.99232 1.39388 9.06493 0.842453C8.13755 0.29103 7.07875 0 6 0C4.92125 0 3.86245 0.29103 2.93506 0.842453C2.00768 1.39388 1.24601 2.18529 0.730236 3.1334C0.214463 4.0815 -0.0363334 5.15121 0.0042479 6.22993C0.0448292 7.30864 0.375287 8.35646 0.960834 9.26307L0.957501 9.25473ZM6.00083 3.50585C6.49529 3.50585 6.97864 3.65257 7.38976 3.92746C7.80088 4.20235 8.12131 4.59306 8.31053 5.05018C8.49975 5.50731 8.54926 6.01031 8.4528 6.49559C8.35633 6.98088 8.11823 7.42663 7.7686 7.7765C7.41897 8.12637 6.97351 8.36463 6.48856 8.46116C6.00361 8.55769 5.50094 8.50815 5.04412 8.3188C4.58731 8.12945 4.19686 7.80881 3.92216 7.3974C3.64746 6.986 3.50083 6.50233 3.50083 6.00754C3.50083 5.34405 3.76423 4.70773 4.23307 4.23857C4.70191 3.76942 5.33779 3.50585 6.00083 3.50585Z" fill="#309B19"/>
</svg>
